<?xml version="1.0" encoding="UTF-8" standalone="no"?>
<svg
   xmlns:osb="http://www.openswatchbook.org/uri/2009/osb"
   xmlns:dc="http://purl.org/dc/elements/1.1/"
   xmlns:cc="http://creativecommons.org/ns#"
   xmlns:rdf="http://www.w3.org/1999/02/22-rdf-syntax-ns#"
   xmlns:svg="http://www.w3.org/2000/svg"
   xmlns="http://www.w3.org/2000/svg"
   xmlns:xlink="http://www.w3.org/1999/xlink"
   xmlns:sodipodi="http://sodipodi.sourceforge.net/DTD/sodipodi-0.dtd"
   xmlns:inkscape="http://www.inkscape.org/namespaces/inkscape"
   width="306mm"
   height="203mm"
   viewBox="0 0 306 203"
   version="1.1"
   preserveAspectRatio="xMidYMid meet"
   id="svg15"
   sodipodi:docname="caja lampara.svg"
   inkscape:version="1.0.2 (394de47547, 2021-03-26)">
  <metadata
     id="metadata21">
    <rdf:RDF>
      <cc:Work
         rdf:about="">
        <dc:format>image/svg+xml</dc:format>
        <dc:type
           rdf:resource="http://purl.org/dc/dcmitype/StillImage" />
        <dc:title></dc:title>
      </cc:Work>
    </rdf:RDF>
  </metadata>
  <defs
     id="defs19">
    <linearGradient
       id="linearGradient1885"
       osb:paint="solid">
      <stop
         style="stop-color:#ff0000;stop-opacity:1;"
         offset="0"
         id="stop1883" />
    </linearGradient>
    <linearGradient
       id="linearGradient1879"
       osb:paint="solid">
      <stop
         style="stop-color:#ff0000;stop-opacity:1;"
         offset="0"
         id="stop1877" />
    </linearGradient>
    <linearGradient
       id="linearGradient1871"
       osb:paint="solid">
      <stop
         style="stop-color:#000000;stop-opacity:1;"
         offset="0"
         id="stop1869" />
    </linearGradient>
    <linearGradient
       id="linearGradient1863"
       osb:paint="solid">
      <stop
         style="stop-color:#000000;stop-opacity:1;"
         offset="0"
         id="stop1861" />
    </linearGradient>
    <linearGradient
       id="linearGradient1855"
       osb:paint="solid">
      <stop
         style="stop-color:#ff0000;stop-opacity:1;"
         offset="0"
         id="stop1853" />
    </linearGradient>
    <linearGradient
       inkscape:collect="always"
       xlink:href="#linearGradient1879"
       id="linearGradient1881"
       x1="46.527068"
       y1="126.44346"
       x2="53.800813"
       y2="126.44346"
       gradientUnits="userSpaceOnUse"
       gradientTransform="translate(0.08562453,12.355866)" />
    <linearGradient
       inkscape:collect="always"
       xlink:href="#linearGradient1885"
       id="linearGradient1887"
       x1="40.354"
       y1="180.82349"
       x2="57.947929"
       y2="180.82349"
       gradientUnits="userSpaceOnUse"
       gradientTransform="translate(0,13.493776)" />
  </defs>
  <sodipodi:namedview
     pagecolor="#ffffff"
     bordercolor="#666666"
     borderopacity="1"
     objecttolerance="10"
     gridtolerance="10"
     guidetolerance="10"
     inkscape:pageopacity="0"
     inkscape:pageshadow="2"
     inkscape:window-width="1920"
     inkscape:window-height="1025"
     id="namedview17"
     showgrid="false"
     inkscape:zoom="0.71472762"
     inkscape:cx="479.53834"
     inkscape:cy="553.32097"
     inkscape:window-x="0"
     inkscape:window-y="27"
     inkscape:window-maximized="1"
     inkscape:current-layer="svg15"
     inkscape:document-rotation="0" />
  <g
     id="svgGroup"
     stroke-linecap="round"
     fill-rule="evenodd"
     font-size="9pt"
     stroke="#000"
     stroke-width="0.25mm"
     fill="none"
     style="stroke:#000;stroke-width:0.25mm;fill:none">
    <path
       d="M 0 153 L 0 165.805 L 3 165.805 L 3 190.195 L 0 190.195 L 0 203 L 37.805 203 L 37.805 200 L 62.195 200 L 62.195 203 L 86.585 203 L 100 203 L 100 190.195 L 97 190.195 L 97 165.805 L 100 165.805 L 100 153 L 62.195 153 L 62.195 156 L 37.805 156 L 37.805 153 L 13.415 153 L 0 153 Z"
       id="front_outsideCutPath"
       stroke="#FF0000"
       stroke-width="0.1"
       style="stroke:#FF0000;stroke-width:0.1"
       vector-effect="non-scaling-stroke" />
    <path
       d="M 57.288 181.777 L 56.477 181.777 L 56.477 178.315 A 2.291 2.291 0 0 0 56.451 177.956 Q 56.389 177.565 56.179 177.338 A 0.914 0.914 0 0 0 55.804 177.099 Q 55.569 177.016 55.247 177.016 A 2.453 2.453 0 0 0 54.788 177.056 Q 54.291 177.151 54.016 177.47 Q 53.659 177.885 53.628 178.793 A 5.193 5.193 0 0 0 53.625 178.969 L 53.625 181.777 L 52.815 181.777 L 52.815 176.425 L 53.474 176.425 L 53.606 177.158 L 53.645 177.158 A 1.641 1.641 0 0 1 54.288 176.573 A 1.974 1.974 0 0 1 54.343 176.545 A 2.195 2.195 0 0 1 55.124 176.336 A 2.654 2.654 0 0 1 55.344 176.328 A 3.2 3.2 0 0 1 55.889 176.371 Q 56.46 176.47 56.799 176.794 A 1.405 1.405 0 0 1 57.142 177.331 Q 57.224 177.553 57.26 177.827 A 3.537 3.537 0 0 1 57.288 178.286 L 57.288 181.777 Z M 41.716 176.425 L 41.716 177.055 L 40.354 177.055 L 40.354 181.777 L 39.543 181.777 L 39.543 177.055 L 38.586 177.055 L 38.586 176.689 L 39.543 176.396 L 39.543 176.098 A 3.285 3.285 0 0 1 39.62 175.354 Q 39.907 174.125 41.267 174.125 A 2.61 2.61 0 0 1 41.636 174.154 Q 41.816 174.179 42.016 174.229 A 5.247 5.247 0 0 1 42.263 174.296 L 42.053 174.946 Q 41.72 174.838 41.456 174.807 A 1.743 1.743 0 0 0 41.252 174.794 A 1.093 1.093 0 0 0 40.989 174.824 A 0.702 0.702 0 0 0 40.574 175.1 Q 40.354 175.405 40.354 176.079 L 40.354 176.425 L 41.716 176.425 Z M 61.414 181.108 L 61.414 181.728 A 0.797 0.797 0 0 1 61.319 181.765 Q 61.218 181.799 61.074 181.825 A 3.033 3.033 0 0 1 61.025 181.833 Q 60.769 181.874 60.564 181.874 A 2.117 2.117 0 0 1 59.94 181.79 Q 59.011 181.504 59.011 180.239 L 59.011 177.055 L 58.245 177.055 L 58.245 176.664 L 59.011 176.328 L 59.353 175.185 L 59.822 175.185 L 59.822 176.425 L 61.375 176.425 L 61.375 177.055 L 59.822 177.055 L 59.822 180.204 A 1.632 1.632 0 0 0 59.845 180.491 Q 59.873 180.648 59.935 180.773 A 0.786 0.786 0 0 0 60.051 180.947 Q 60.281 181.205 60.681 181.205 A 2.662 2.662 0 0 0 61.071 181.178 A 2.453 2.453 0 0 0 61.096 181.174 Q 61.296 181.142 61.414 181.108 Z M 45.774 176.386 L 45.662 177.138 Q 45.385 177.077 45.163 177.067 A 1.901 1.901 0 0 0 45.076 177.065 Q 44.426 177.065 43.965 177.592 A 1.851 1.851 0 0 0 43.518 178.631 A 2.46 2.46 0 0 0 43.503 178.906 L 43.503 181.777 L 42.693 181.777 L 42.693 176.425 L 43.362 176.425 L 43.455 177.416 L 43.494 177.416 A 2.737 2.737 0 0 1 43.8 176.979 A 2.091 2.091 0 0 1 44.211 176.611 Q 44.631 176.328 45.134 176.328 A 3.721 3.721 0 0 1 45.467 176.342 A 2.716 2.716 0 0 1 45.774 176.386 Z M 51.32 179.911 A 4.187 4.187 0 0 0 51.394 179.096 Q 51.394 178.576 51.284 178.144 A 2.524 2.524 0 0 0 50.732 177.075 A 2.122 2.122 0 0 0 49.747 176.439 A 2.724 2.724 0 0 0 48.948 176.328 A 3.148 3.148 0 0 0 48.382 176.376 A 2.144 2.144 0 0 0 47.131 177.058 A 2.239 2.239 0 0 0 46.856 177.439 Q 46.477 178.1 46.477 179.096 A 4.055 4.055 0 0 0 46.528 179.753 A 2.998 2.998 0 0 0 46.78 180.571 A 2.664 2.664 0 0 0 46.839 180.686 A 2.194 2.194 0 0 0 47.639 181.537 Q 48.196 181.874 48.914 181.874 A 3.147 3.147 0 0 0 49.463 181.828 A 2.161 2.161 0 0 0 50.735 181.14 A 2.261 2.261 0 0 0 51.004 180.77 Q 51.224 180.394 51.32 179.911 Z M 47.317 179.096 Q 47.317 180.121 47.727 180.659 A 1.328 1.328 0 0 0 48.592 181.168 A 2.013 2.013 0 0 0 48.933 181.196 A 1.883 1.883 0 0 0 49.43 181.134 A 1.31 1.31 0 0 0 50.142 180.661 A 1.74 1.74 0 0 0 50.413 180.133 Q 50.492 179.889 50.527 179.592 A 4.27 4.27 0 0 0 50.554 179.096 A 4.044 4.044 0 0 0 50.516 178.52 Q 50.474 178.226 50.384 177.989 A 1.669 1.669 0 0 0 50.142 177.546 A 1.333 1.333 0 0 0 49.313 177.051 A 2.044 2.044 0 0 0 48.923 177.016 A 1.929 1.929 0 0 0 48.443 177.072 A 1.291 1.291 0 0 0 47.722 177.538 Q 47.317 178.061 47.317 179.096 Z"
       id="front_labelLayer"
       stroke="#777777"
       fill="#777777"
       style="stroke:#777777;fill:#777777"
       vector-effect="non-scaling-stroke" />
    <path
       d="M 106 153 L 106 165.805 L 103 165.805 L 103 190.195 L 106 190.195 L 106 203 L 140.805 203 L 140.805 200 L 165.195 200 L 165.195 203 L 189.585 203 L 200 203 L 200 190.195 L 203 190.195 L 203 165.805 L 200 165.805 L 200 153 L 165.195 153 L 165.195 156 L 140.805 156 L 140.805 153 L 116.415 153 L 106 153 Z"
       id="left_outsideCutPath"
       stroke="#FF0000"
       stroke-width="0.1"
       style="stroke:#FF0000;stroke-width:0.1"
       vector-effect="non-scaling-stroke" />
    <path
       d="M 156.557 176.425 L 156.557 177.055 L 155.195 177.055 L 155.195 181.777 L 154.384 181.777 L 154.384 177.055 L 153.427 177.055 L 153.427 176.689 L 154.384 176.396 L 154.384 176.098 A 3.285 3.285 0 0 1 154.461 175.354 Q 154.748 174.125 156.108 174.125 A 2.61 2.61 0 0 1 156.477 174.154 Q 156.657 174.179 156.857 174.229 A 5.247 5.247 0 0 1 157.104 174.296 L 156.894 174.946 Q 156.561 174.838 156.297 174.807 A 1.743 1.743 0 0 0 156.093 174.794 A 1.093 1.093 0 0 0 155.83 174.824 A 0.702 0.702 0 0 0 155.415 175.1 Q 155.195 175.405 155.195 176.079 L 155.195 176.425 L 156.557 176.425 Z M 152.763 178.735 L 152.763 179.247 L 149.077 179.247 Q 149.093 179.891 149.309 180.323 A 1.522 1.522 0 0 0 149.553 180.678 A 1.473 1.473 0 0 0 150.326 181.114 A 2.232 2.232 0 0 0 150.825 181.166 A 4.281 4.281 0 0 0 152.428 180.849 A 4.905 4.905 0 0 0 152.534 180.805 L 152.534 181.528 A 4.866 4.866 0 0 1 152.09 181.695 A 3.721 3.721 0 0 1 151.721 181.794 Q 151.337 181.874 150.795 181.874 A 3.15 3.15 0 0 1 150.007 181.781 A 2.23 2.23 0 0 1 148.923 181.152 Q 148.276 180.471 148.239 179.291 A 4.63 4.63 0 0 1 148.237 179.145 A 4.256 4.256 0 0 1 148.316 178.301 Q 148.419 177.788 148.66 177.389 A 2.4 2.4 0 0 1 148.874 177.089 A 2.077 2.077 0 0 1 150.388 176.334 A 2.865 2.865 0 0 1 150.585 176.328 A 2.469 2.469 0 0 1 151.281 176.421 A 1.879 1.879 0 0 1 152.177 176.989 A 2.266 2.266 0 0 1 152.691 178.025 A 3.299 3.299 0 0 1 152.763 178.735 Z M 159.995 181.108 L 159.995 181.728 A 0.797 0.797 0 0 1 159.9 181.765 Q 159.799 181.799 159.655 181.825 A 3.033 3.033 0 0 1 159.606 181.833 Q 159.35 181.874 159.145 181.874 A 2.117 2.117 0 0 1 158.521 181.79 Q 157.592 181.504 157.592 180.239 L 157.592 177.055 L 156.826 177.055 L 156.826 176.664 L 157.592 176.328 L 157.934 175.185 L 158.403 175.185 L 158.403 176.425 L 159.956 176.425 L 159.956 177.055 L 158.403 177.055 L 158.403 180.204 A 1.632 1.632 0 0 0 158.426 180.491 Q 158.454 180.648 158.516 180.773 A 0.786 0.786 0 0 0 158.632 180.947 Q 158.862 181.205 159.262 181.205 A 2.662 2.662 0 0 0 159.652 181.178 A 2.453 2.453 0 0 0 159.677 181.174 Q 159.877 181.142 159.995 181.108 Z M 146.816 174.179 L 146.816 181.777 L 146.005 181.777 L 146.005 174.179 L 146.816 174.179 Z M 149.096 178.588 L 151.894 178.588 Q 151.894 178.07 151.738 177.715 A 1.254 1.254 0 0 0 151.552 177.414 A 1.11 1.11 0 0 0 150.884 177.033 A 1.666 1.666 0 0 0 150.576 177.006 Q 149.931 177.006 149.548 177.426 A 1.601 1.601 0 0 0 149.229 177.963 Q 149.128 178.24 149.096 178.588 Z"
       id="left_labelLayer"
       stroke="#777777"
       fill="#777777"
       style="stroke:#777777;fill:#777777"
       vector-effect="non-scaling-stroke" />
    <path
       d="M 209 106 L 209 140.805 L 206 140.805 L 206 165.195 L 209 165.195 L 209 189.585 L 209 200 L 243.805 200 L 243.805 203 L 268.195 203 L 268.195 200 L 292.585 200 L 303 200 L 303 165.195 L 306 165.195 L 306 140.805 L 303 140.805 L 303 116.415 L 303 106 L 268.195 106 L 268.195 103 L 243.805 103 L 243.805 106 L 219.415 106 L 209 106 Z"
       id="top_outsideCutPath"
       stroke="#FF0000"
       stroke-width="0.1"
       style="stroke:#FF0000;stroke-width:0.1"
       vector-effect="non-scaling-stroke" />
    <path
       d="M 263.187 155.813 L 263.07 155.813 A 15.342 15.342 0 0 1 263.171 156.946 A 12.855 12.855 0 0 1 263.187 157.59 L 263.187 161.994 L 261.566 161.994 L 261.566 146.486 L 262.885 146.486 L 263.109 147.951 L 263.187 147.951 A 4.364 4.364 0 0 1 263.818 147.234 A 3.374 3.374 0 0 1 264.642 146.682 Q 265.473 146.291 266.547 146.291 A 4.969 4.969 0 0 1 267.951 146.479 A 3.673 3.673 0 0 1 269.833 147.746 Q 270.779 148.935 270.952 150.908 A 10.556 10.556 0 0 1 270.99 151.828 Q 270.99 154.465 269.813 155.925 A 3.838 3.838 0 0 1 267.086 157.359 A 5.498 5.498 0 0 1 266.547 157.385 A 4.917 4.917 0 0 1 265.311 157.234 A 4.278 4.278 0 0 1 264.638 156.999 Q 263.773 156.613 263.187 155.813 Z M 247.348 155.852 L 247.348 157.092 A 1.595 1.595 0 0 1 247.158 157.167 Q 246.957 157.234 246.668 157.285 A 6.063 6.063 0 0 1 246.571 157.302 Q 246.093 157.379 245.703 157.384 A 4.156 4.156 0 0 1 245.648 157.385 A 4.234 4.234 0 0 1 244.401 157.217 Q 243.029 156.794 242.67 155.304 A 5.096 5.096 0 0 1 242.543 154.113 L 242.543 147.746 L 241.01 147.746 L 241.01 146.965 L 242.543 146.291 L 243.226 144.006 L 244.164 144.006 L 244.164 146.486 L 247.269 146.486 L 247.269 147.746 L 244.164 147.746 L 244.164 154.045 A 3.264 3.264 0 0 0 244.211 154.618 Q 244.267 154.933 244.391 155.182 A 1.572 1.572 0 0 0 244.623 155.529 A 1.506 1.506 0 0 0 245.549 156.022 A 2.167 2.167 0 0 0 245.883 156.047 A 5.324 5.324 0 0 0 246.663 155.991 A 4.914 4.914 0 0 0 246.713 155.983 A 8.77 8.77 0 0 0 246.947 155.943 Q 247.171 155.902 247.326 155.858 A 2.43 2.43 0 0 0 247.348 155.852 Z M 258.576 153.457 A 8.374 8.374 0 0 0 258.725 151.828 A 9.514 9.514 0 0 0 258.721 151.571 Q 258.657 149.203 257.401 147.785 A 4.244 4.244 0 0 0 255.431 146.514 A 5.447 5.447 0 0 0 253.832 146.291 A 6.296 6.296 0 0 0 252.701 146.388 A 4.288 4.288 0 0 0 250.199 147.751 Q 249.33 148.72 249.038 150.2 A 8.417 8.417 0 0 0 248.891 151.828 A 8.11 8.11 0 0 0 248.992 153.142 A 5.997 5.997 0 0 0 249.496 154.777 A 5.328 5.328 0 0 0 249.614 155.008 A 4.389 4.389 0 0 0 251.215 156.711 A 4.514 4.514 0 0 0 252.251 157.172 A 5.206 5.206 0 0 0 253.764 157.385 A 6.295 6.295 0 0 0 254.863 157.293 A 4.322 4.322 0 0 0 257.406 155.915 Q 258.282 154.939 258.576 153.457 Z M 250.57 151.828 Q 250.57 153.879 251.391 154.953 A 2.657 2.657 0 0 0 253.121 155.972 A 4.026 4.026 0 0 0 253.803 156.027 A 3.765 3.765 0 0 0 254.796 155.904 A 2.62 2.62 0 0 0 256.22 154.958 Q 257.045 153.889 257.045 151.828 Q 257.045 150.519 256.705 149.613 A 3.338 3.338 0 0 0 256.22 148.728 A 2.667 2.667 0 0 0 254.562 147.738 A 4.089 4.089 0 0 0 253.783 147.668 A 3.858 3.858 0 0 0 252.823 147.78 A 2.582 2.582 0 0 0 251.381 148.713 Q 250.797 149.465 250.634 150.749 A 8.566 8.566 0 0 0 250.57 151.828 Z M 263.187 151.467 L 263.187 151.828 A 10.719 10.719 0 0 0 263.24 152.936 Q 263.357 154.054 263.73 154.734 A 2.445 2.445 0 0 0 263.939 155.056 A 2.352 2.352 0 0 0 265.132 155.861 Q 265.664 156.027 266.351 156.027 Q 267.685 156.027 268.463 154.989 A 3.23 3.23 0 0 0 268.524 154.904 A 3.919 3.919 0 0 0 269.062 153.759 Q 269.217 153.234 269.275 152.603 A 8.636 8.636 0 0 0 269.31 151.809 A 8.181 8.181 0 0 0 269.234 150.648 Q 269.065 149.472 268.524 148.737 A 2.522 2.522 0 0 0 266.68 147.687 A 3.488 3.488 0 0 0 266.312 147.668 A 4.671 4.671 0 0 0 265.44 147.744 Q 264.46 147.93 263.939 148.576 A 2.777 2.777 0 0 0 263.505 149.368 Q 263.23 150.114 263.193 151.218 A 10.316 10.316 0 0 0 263.187 151.467 Z"
       id="top_labelLayer"
       stroke="#777777"
       fill="#777777"
       style="stroke:#777777;fill:#777777"
       vector-effect="non-scaling-stroke" />
    <path
       d="M 0 100 L 0 112.805 L 3 112.805 L 3 137.195 L 0 137.195 L 0 150 L 37.805 150 L 37.805 147 L 62.195 147 L 62.195 150 L 86.585 150 L 100 150 L 100 137.195 L 97 137.195 L 97 112.805 L 100 112.805 L 100 100 L 62.195 100 L 62.195 103 L 37.805 103 L 37.805 100 L 13.415 100 L 0 100 Z"
       id="back_outsideCutPath"
       stroke="#FF0000"
       stroke-width="0.1"
       style="stroke:#FF0000;stroke-width:0.1"
       vector-effect="non-scaling-stroke" />
    <path
       d="M 56.846 126.011 L 56.885 126.011 A 4.798 4.798 0 0 1 57.003 125.85 Q 57.14 125.673 57.335 125.446 A 17.416 17.416 0 0 1 57.524 125.229 L 59.253 123.398 L 60.215 123.398 L 58.047 125.679 L 60.366 128.75 L 59.385 128.75 L 57.495 126.221 L 56.885 126.748 L 56.885 128.75 L 56.084 128.75 L 56.084 121.152 L 56.885 121.152 L 56.885 125.181 A 5.402 5.402 0 0 1 56.882 125.333 Q 56.875 125.583 56.847 125.99 A 33.76 33.76 0 0 1 56.846 126.011 Z M 40.444 128.061 L 40.386 128.061 L 40.215 128.75 L 39.634 128.75 L 39.634 121.152 L 40.444 121.152 L 40.444 122.998 Q 40.444 123.598 40.408 124.079 A 10.075 10.075 0 0 1 40.405 124.111 L 40.444 124.111 A 1.843 1.843 0 0 1 41.789 123.33 A 2.768 2.768 0 0 1 42.124 123.31 A 2.477 2.477 0 0 1 42.821 123.404 A 1.854 1.854 0 0 1 43.762 124.031 Q 44.229 124.607 44.323 125.568 A 5.203 5.203 0 0 1 44.346 126.069 A 4.752 4.752 0 0 1 44.283 126.869 Q 44.21 127.295 44.053 127.637 A 2.278 2.278 0 0 1 43.757 128.118 A 1.919 1.919 0 0 1 42.394 128.835 A 2.749 2.749 0 0 1 42.124 128.848 Q 41.602 128.848 41.169 128.655 A 1.795 1.795 0 0 1 40.444 128.061 Z M 49.653 128.75 L 49.053 128.75 L 48.892 127.988 L 48.853 127.988 A 3.36 3.36 0 0 1 48.581 128.293 Q 48.317 128.552 48.054 128.669 A 1.869 1.869 0 0 1 47.668 128.791 Q 47.396 128.848 47.061 128.848 A 2.487 2.487 0 0 1 46.554 128.799 Q 46.245 128.735 46.007 128.585 A 1.396 1.396 0 0 1 45.813 128.437 A 1.332 1.332 0 0 1 45.411 127.735 A 2.039 2.039 0 0 1 45.361 127.27 A 1.403 1.403 0 0 1 46.159 125.947 Q 46.8 125.606 47.954 125.571 L 48.862 125.542 L 48.862 125.21 A 2.328 2.328 0 0 0 48.84 124.873 Q 48.814 124.701 48.761 124.563 A 0.905 0.905 0 0 0 48.591 124.28 Q 48.375 124.04 47.952 123.992 A 2.003 2.003 0 0 0 47.725 123.979 A 2.639 2.639 0 0 0 47.117 124.055 Q 46.839 124.121 46.535 124.245 A 5.428 5.428 0 0 0 46.211 124.39 L 45.962 123.769 A 3.737 3.737 0 0 1 46.683 123.473 A 4.254 4.254 0 0 1 46.829 123.433 A 3.754 3.754 0 0 1 47.773 123.31 A 3.423 3.423 0 0 1 48.295 123.347 Q 48.867 123.436 49.192 123.735 A 1.284 1.284 0 0 1 49.523 124.246 Q 49.6 124.456 49.632 124.717 A 3.189 3.189 0 0 1 49.653 125.098 L 49.653 128.75 Z M 54.893 123.579 L 54.644 124.268 A 3.606 3.606 0 0 0 54.252 124.137 A 4.306 4.306 0 0 0 54.058 124.089 Q 53.786 124.029 53.568 124.02 A 1.797 1.797 0 0 0 53.496 124.018 A 1.798 1.798 0 0 0 52.766 124.156 Q 51.865 124.553 51.865 126.099 A 3.925 3.925 0 0 0 51.904 126.67 Q 51.947 126.96 52.037 127.195 A 1.681 1.681 0 0 0 52.263 127.612 A 1.287 1.287 0 0 0 53.097 128.111 A 1.961 1.961 0 0 0 53.442 128.14 A 3.393 3.393 0 0 0 54.378 128.003 A 4.189 4.189 0 0 0 54.814 127.852 L 54.814 128.569 A 2.306 2.306 0 0 1 54.25 128.769 Q 53.99 128.827 53.687 128.842 A 4.445 4.445 0 0 1 53.462 128.848 A 3.029 3.029 0 0 1 52.725 128.763 A 2.054 2.054 0 0 1 51.663 128.132 A 2.345 2.345 0 0 1 51.175 127.237 Q 51.067 126.881 51.037 126.454 A 4.901 4.901 0 0 1 51.025 126.108 A 4.472 4.472 0 0 1 51.095 125.295 Q 51.179 124.841 51.365 124.484 A 2.235 2.235 0 0 1 51.672 124.033 A 2.099 2.099 0 0 1 52.822 123.372 A 3.182 3.182 0 0 1 53.516 123.301 Q 53.901 123.301 54.287 123.384 A 4.046 4.046 0 0 1 54.512 123.438 Q 54.742 123.502 54.893 123.579 Z M 41.124 124.19 A 1.078 1.078 0 0 0 40.811 124.465 Q 40.444 124.941 40.444 126.069 A 5.359 5.359 0 0 0 40.471 126.623 Q 40.529 127.182 40.716 127.522 A 1.222 1.222 0 0 0 40.82 127.683 A 1.176 1.176 0 0 0 41.417 128.086 Q 41.616 128.148 41.859 128.164 A 2.606 2.606 0 0 0 42.026 128.169 A 1.616 1.616 0 0 0 42.485 128.107 A 1.166 1.166 0 0 0 43.14 127.624 Q 43.506 127.08 43.506 126.06 A 4.789 4.789 0 0 0 43.477 125.514 Q 43.403 124.87 43.14 124.502 Q 42.773 123.989 42.007 123.989 Q 41.467 123.989 41.124 124.19 Z M 48.843 126.602 L 48.843 126.118 L 48.032 126.152 Q 47.065 126.186 46.638 126.453 A 0.865 0.865 0 0 0 46.226 127.08 A 1.28 1.28 0 0 0 46.211 127.28 A 1.158 1.158 0 0 0 46.24 127.546 Q 46.288 127.75 46.417 127.891 A 0.722 0.722 0 0 0 46.477 127.949 A 0.882 0.882 0 0 0 46.808 128.125 Q 46.938 128.163 47.095 128.174 A 1.823 1.823 0 0 0 47.222 128.179 A 2.232 2.232 0 0 0 47.704 128.13 Q 48.039 128.055 48.287 127.869 A 1.353 1.353 0 0 0 48.411 127.764 Q 48.843 127.349 48.843 126.602 Z"
       id="back_labelLayer"
       stroke="#777777"
       fill="#777777"
       style="stroke:#777777;fill:#777777"
       vector-effect="non-scaling-stroke" />
    <path
       d="M 106 100 L 106 112.805 L 103 112.805 L 103 137.195 L 106 137.195 L 106 150 L 140.805 150 L 140.805 147 L 165.195 147 L 165.195 150 L 189.585 150 L 200 150 L 200 137.195 L 203 137.195 L 203 112.805 L 200 112.805 L 200 100 L 165.195 100 L 165.195 103 L 140.805 103 L 140.805 100 L 116.415 100 L 106 100 Z"
       id="right_outsideCutPath"
       stroke="#FF0000"
       stroke-width="0.1"
       style="stroke:#FF0000;stroke-width:0.1"
       vector-effect="non-scaling-stroke" />
    <path
       d="M 159.218 127.598 L 158.408 127.598 L 158.408 124.136 A 2.291 2.291 0 0 0 158.381 123.776 Q 158.319 123.386 158.11 123.159 A 0.914 0.914 0 0 0 157.735 122.92 Q 157.5 122.837 157.177 122.837 A 2.453 2.453 0 0 0 156.719 122.877 Q 156.464 122.925 156.269 123.033 A 1.135 1.135 0 0 0 155.944 123.296 A 1.349 1.349 0 0 0 155.715 123.701 Q 155.577 124.073 155.559 124.625 A 5.231 5.231 0 0 0 155.556 124.8 L 155.556 127.598 L 154.746 127.598 L 154.746 120 L 155.556 120 L 155.556 122.3 A 7.291 7.291 0 0 1 155.551 122.58 Q 155.546 122.711 155.536 122.824 A 3.171 3.171 0 0 1 155.517 122.988 L 155.566 122.988 A 1.619 1.619 0 0 1 156.133 122.442 A 1.978 1.978 0 0 1 156.247 122.38 A 2.081 2.081 0 0 1 156.93 122.178 A 2.631 2.631 0 0 1 157.255 122.158 A 3.288 3.288 0 0 1 157.808 122.201 Q 158.102 122.252 158.334 122.36 A 1.461 1.461 0 0 1 158.728 122.624 A 1.411 1.411 0 0 1 159.076 123.171 Q 159.218 123.559 159.218 124.106 L 159.218 127.598 Z M 151.796 122.246 L 153.647 122.246 L 153.647 122.759 L 152.656 122.876 Q 152.792 123.047 152.9 123.323 Q 153.007 123.599 153.007 123.945 A 1.858 1.858 0 0 1 152.922 124.521 A 1.503 1.503 0 0 1 152.47 125.2 Q 151.986 125.622 151.178 125.664 A 3.521 3.521 0 0 1 150.996 125.669 A 2.605 2.605 0 0 1 150.694 125.652 A 2.2 2.2 0 0 1 150.546 125.63 A 1.442 1.442 0 0 0 150.314 125.78 Q 150.194 125.877 150.124 125.988 A 0.61 0.61 0 0 0 150.029 126.318 Q 150.029 126.538 150.209 126.643 Q 150.39 126.748 150.83 126.748 L 151.777 126.748 A 3.318 3.318 0 0 1 152.281 126.784 Q 152.544 126.824 152.757 126.911 A 1.465 1.465 0 0 1 153.112 127.114 A 1.186 1.186 0 0 1 153.553 127.87 A 1.781 1.781 0 0 1 153.579 128.179 Q 153.579 129.067 152.866 129.534 Q 152.369 129.859 151.553 129.957 A 6.424 6.424 0 0 1 150.786 130 A 4.541 4.541 0 0 1 150.176 129.962 Q 149.558 129.878 149.167 129.609 A 1.292 1.292 0 0 1 148.751 129.157 Q 148.617 128.91 148.601 128.597 A 1.711 1.711 0 0 1 148.598 128.506 A 1.239 1.239 0 0 1 148.911 127.661 Q 149.223 127.305 149.79 127.178 A 0.841 0.841 0 0 1 149.463 126.914 A 0.999 0.999 0 0 1 149.445 126.89 A 0.751 0.751 0 0 1 149.307 126.483 A 0.931 0.931 0 0 1 149.306 126.436 A 0.927 0.927 0 0 1 149.353 126.137 A 0.821 0.821 0 0 1 149.462 125.923 A 1.16 1.16 0 0 1 149.616 125.75 Q 149.697 125.674 149.802 125.599 A 2.546 2.546 0 0 1 149.956 125.498 A 1.421 1.421 0 0 1 149.338 125.004 A 1.761 1.761 0 0 1 149.279 124.917 A 1.676 1.676 0 0 1 149.022 124.109 A 2.045 2.045 0 0 1 149.018 123.979 Q 149.018 123.101 149.545 122.624 A 1.721 1.721 0 0 1 150.206 122.26 Q 150.469 122.18 150.784 122.157 A 3.58 3.58 0 0 1 151.04 122.148 A 3.107 3.107 0 0 1 151.451 122.174 A 2.366 2.366 0 0 1 151.796 122.246 Z M 163.344 126.929 L 163.344 127.549 A 0.797 0.797 0 0 1 163.25 127.586 Q 163.149 127.62 163.004 127.646 A 3.033 3.033 0 0 1 162.956 127.654 Q 162.7 127.695 162.495 127.695 A 2.117 2.117 0 0 1 161.871 127.611 Q 160.942 127.325 160.942 126.06 L 160.942 122.876 L 160.175 122.876 L 160.175 122.485 L 160.942 122.148 L 161.284 121.006 L 161.752 121.006 L 161.752 122.246 L 163.305 122.246 L 163.305 122.876 L 161.752 122.876 L 161.752 126.025 A 1.632 1.632 0 0 0 161.776 126.312 Q 161.804 126.469 161.866 126.594 A 0.786 0.786 0 0 0 161.982 126.768 Q 162.211 127.026 162.612 127.026 A 2.662 2.662 0 0 0 163.002 126.998 A 2.453 2.453 0 0 0 163.027 126.995 Q 163.227 126.963 163.344 126.929 Z M 145.737 122.207 L 145.625 122.959 Q 145.348 122.898 145.126 122.888 A 1.901 1.901 0 0 0 145.039 122.886 Q 144.389 122.886 143.928 123.413 A 1.851 1.851 0 0 0 143.481 124.452 A 2.46 2.46 0 0 0 143.466 124.727 L 143.466 127.598 L 142.656 127.598 L 142.656 122.246 L 143.325 122.246 L 143.417 123.237 L 143.457 123.237 A 2.737 2.737 0 0 1 143.763 122.8 A 2.091 2.091 0 0 1 144.174 122.432 Q 144.594 122.148 145.097 122.148 A 3.721 3.721 0 0 1 145.43 122.163 A 2.716 2.716 0 0 1 145.737 122.207 Z M 147.548 122.246 L 147.548 127.598 L 146.738 127.598 L 146.738 122.246 L 147.548 122.246 Z M 151.518 127.476 L 150.546 127.476 A 1.863 1.863 0 0 0 150.211 127.504 Q 149.894 127.562 149.687 127.739 Q 149.379 128.003 149.379 128.496 A 0.814 0.814 0 0 0 149.433 128.798 Q 149.52 129.017 149.746 129.155 Q 150.112 129.38 150.795 129.38 A 5.449 5.449 0 0 0 151.328 129.356 Q 151.861 129.303 152.196 129.136 A 1.346 1.346 0 0 0 152.307 129.075 Q 152.797 128.77 152.797 128.247 A 1.097 1.097 0 0 0 152.777 128.029 Q 152.724 127.766 152.529 127.644 A 0.769 0.769 0 0 0 152.347 127.564 Q 152.057 127.476 151.518 127.476 Z M 149.819 123.96 A 1.582 1.582 0 0 0 149.851 124.292 Q 149.921 124.614 150.136 124.81 Q 150.454 125.098 151.02 125.098 Q 151.957 125.098 152.154 124.379 A 1.642 1.642 0 0 0 152.207 123.945 Q 152.207 122.988 151.45 122.791 A 1.763 1.763 0 0 0 151.005 122.739 Q 150.568 122.739 150.285 122.92 A 0.933 0.933 0 0 0 150.126 123.047 Q 149.865 123.308 149.826 123.783 A 2.132 2.132 0 0 0 149.819 123.96 Z M 146.806 120.388 A 0.379 0.379 0 0 0 146.722 120.507 Q 146.669 120.623 146.669 120.796 Q 146.669 120.934 146.704 121.036 A 0.418 0.418 0 0 0 146.806 121.204 Q 146.943 121.338 147.148 121.338 A 0.473 0.473 0 0 0 147.485 121.204 A 0.396 0.396 0 0 0 147.562 121.101 Q 147.597 121.035 147.613 120.95 A 0.839 0.839 0 0 0 147.626 120.796 A 0.927 0.927 0 0 0 147.622 120.708 Q 147.603 120.5 147.485 120.391 A 0.478 0.478 0 0 0 147.148 120.259 A 0.619 0.619 0 0 0 147.107 120.26 A 0.469 0.469 0 0 0 146.806 120.388 Z"
       id="right_labelLayer"
       stroke="#777777"
       fill="#777777"
       style="stroke:#777777;fill:#777777"
       vector-effect="non-scaling-stroke" />
    <path
       d="M 209 3 L 209 37.805 L 206 37.805 L 206 62.195 L 209 62.195 L 209 86.585 L 209 97 L 243.805 97 L 243.805 100 L 268.195 100 L 268.195 97 L 292.585 97 L 303 97 L 303 62.195 L 306 62.195 L 306 37.805 L 303 37.805 L 303 13.415 L 303 3 L 268.195 3 L 268.195 0 L 243.805 0 L 243.805 3 L 219.415 3 L 209 3 Z"
       id="bottom_outsideCutPath"
       stroke="#FF0000"
       stroke-width="0.1"
       style="stroke:#FF0000;stroke-width:0.1"
       vector-effect="non-scaling-stroke" />
    <path
       d="M 288.9 57.5 L 287.279 57.5 L 287.279 50.537 A 4.782 4.782 0 0 0 287.231 49.834 Q 287.178 49.475 287.065 49.185 A 1.959 1.959 0 0 0 286.732 48.618 Q 286.185 47.978 285.033 47.978 Q 283.519 47.978 282.797 48.847 A 2.679 2.679 0 0 0 282.343 49.669 Q 282.074 50.422 282.074 51.523 L 282.074 57.5 L 280.453 57.5 L 280.453 50.537 A 4.782 4.782 0 0 0 280.405 49.834 Q 280.351 49.475 280.238 49.185 A 1.959 1.959 0 0 0 279.906 48.618 A 1.7 1.7 0 0 0 279.124 48.11 Q 278.843 48.017 278.499 47.99 A 3.796 3.796 0 0 0 278.197 47.978 A 4.026 4.026 0 0 0 277.365 48.059 Q 276.464 48.249 275.966 48.891 Q 275.324 49.719 275.264 51.505 A 11.287 11.287 0 0 0 275.258 51.885 L 275.258 57.5 L 273.637 57.5 L 273.637 46.797 L 274.955 46.797 L 275.219 48.261 L 275.297 48.261 Q 275.756 47.48 276.591 47.041 A 3.849 3.849 0 0 1 278.111 46.614 A 4.649 4.649 0 0 1 278.461 46.601 Q 280.015 46.601 280.903 47.298 A 2.768 2.768 0 0 1 281.742 48.418 L 281.82 48.418 A 3.385 3.385 0 0 1 283.095 47.152 A 4.067 4.067 0 0 1 283.207 47.09 A 4.103 4.103 0 0 1 284.712 46.632 A 5.116 5.116 0 0 1 285.277 46.601 Q 286.502 46.601 287.311 47.025 A 2.672 2.672 0 0 1 287.997 47.534 A 2.792 2.792 0 0 1 288.596 48.514 Q 288.9 49.328 288.9 50.517 L 288.9 57.5 Z M 224.721 56.123 L 224.603 56.123 L 224.262 57.5 L 223.1 57.5 L 223.1 42.304 L 224.721 42.304 L 224.721 45.996 Q 224.721 47.196 224.647 48.159 A 20.218 20.218 0 0 1 224.643 48.222 L 224.721 48.222 A 3.686 3.686 0 0 1 227.411 46.66 A 5.537 5.537 0 0 1 228.08 46.621 A 4.955 4.955 0 0 1 229.474 46.807 A 3.709 3.709 0 0 1 231.356 48.061 A 4.777 4.777 0 0 1 232.194 49.675 Q 232.4 50.339 232.477 51.135 A 10.405 10.405 0 0 1 232.523 52.138 Q 232.523 54.775 231.347 56.235 A 3.838 3.838 0 0 1 228.619 57.669 A 5.498 5.498 0 0 1 228.08 57.695 A 4.917 4.917 0 0 1 226.844 57.544 A 4.278 4.278 0 0 1 226.171 57.309 Q 225.307 56.924 224.721 56.123 Z M 252.357 56.162 L 252.357 57.402 A 1.595 1.595 0 0 1 252.168 57.477 Q 251.967 57.544 251.678 57.596 A 6.063 6.063 0 0 1 251.581 57.612 Q 251.102 57.69 250.713 57.695 A 4.156 4.156 0 0 1 250.658 57.695 A 4.234 4.234 0 0 1 249.41 57.527 Q 248.039 57.104 247.68 55.614 A 5.096 5.096 0 0 1 247.553 54.424 L 247.553 48.056 L 246.019 48.056 L 246.019 47.275 L 247.553 46.601 L 248.236 44.316 L 249.174 44.316 L 249.174 46.797 L 252.279 46.797 L 252.279 48.056 L 249.174 48.056 L 249.174 54.355 A 3.264 3.264 0 0 0 249.221 54.928 Q 249.277 55.243 249.4 55.492 A 1.572 1.572 0 0 0 249.633 55.84 A 1.506 1.506 0 0 0 250.559 56.332 A 2.167 2.167 0 0 0 250.893 56.357 A 5.324 5.324 0 0 0 251.672 56.301 A 4.914 4.914 0 0 0 251.723 56.294 A 8.77 8.77 0 0 0 251.957 56.254 Q 252.18 56.212 252.336 56.168 A 2.43 2.43 0 0 0 252.357 56.162 Z M 259.418 56.162 L 259.418 57.402 A 1.595 1.595 0 0 1 259.229 57.477 Q 259.027 57.544 258.738 57.596 A 6.063 6.063 0 0 1 258.642 57.612 Q 258.163 57.69 257.774 57.695 A 4.156 4.156 0 0 1 257.719 57.695 A 4.234 4.234 0 0 1 256.471 57.527 Q 255.099 57.104 254.74 55.614 A 5.096 5.096 0 0 1 254.613 54.424 L 254.613 48.056 L 253.08 48.056 L 253.08 47.275 L 254.613 46.601 L 255.297 44.316 L 256.234 44.316 L 256.234 46.797 L 259.34 46.797 L 259.34 48.056 L 256.234 48.056 L 256.234 54.355 A 3.264 3.264 0 0 0 256.281 54.928 Q 256.338 55.243 256.461 55.492 A 1.572 1.572 0 0 0 256.693 55.84 A 1.506 1.506 0 0 0 257.619 56.332 A 2.167 2.167 0 0 0 257.953 56.357 A 5.324 5.324 0 0 0 258.733 56.301 A 4.914 4.914 0 0 0 258.783 56.294 A 8.77 8.77 0 0 0 259.017 56.254 Q 259.241 56.212 259.396 56.168 A 2.43 2.43 0 0 0 259.418 56.162 Z M 244.445 53.767 A 8.374 8.374 0 0 0 244.594 52.138 A 9.514 9.514 0 0 0 244.59 51.881 Q 244.526 49.513 243.27 48.095 A 4.244 4.244 0 0 0 241.3 46.825 A 5.447 5.447 0 0 0 239.701 46.601 A 6.296 6.296 0 0 0 238.57 46.698 A 4.288 4.288 0 0 0 236.068 48.061 Q 235.199 49.031 234.907 50.511 A 8.417 8.417 0 0 0 234.76 52.138 A 8.11 8.11 0 0 0 234.862 53.452 A 5.997 5.997 0 0 0 235.365 55.088 A 5.328 5.328 0 0 0 235.483 55.319 A 4.389 4.389 0 0 0 237.084 57.021 A 4.514 4.514 0 0 0 238.12 57.482 A 5.206 5.206 0 0 0 239.633 57.695 A 6.295 6.295 0 0 0 240.732 57.603 A 4.322 4.322 0 0 0 243.275 56.225 Q 244.151 55.249 244.445 53.767 Z M 270.646 53.767 A 8.374 8.374 0 0 0 270.795 52.138 A 9.514 9.514 0 0 0 270.791 51.881 Q 270.727 49.513 269.472 48.095 A 4.244 4.244 0 0 0 267.501 46.825 A 5.447 5.447 0 0 0 265.902 46.601 A 6.296 6.296 0 0 0 264.771 46.698 A 4.288 4.288 0 0 0 262.269 48.061 Q 261.4 49.031 261.109 50.511 A 8.417 8.417 0 0 0 260.961 52.138 A 8.11 8.11 0 0 0 261.063 53.452 A 5.997 5.997 0 0 0 261.566 55.088 A 5.328 5.328 0 0 0 261.684 55.319 A 4.389 4.389 0 0 0 263.285 57.021 A 4.514 4.514 0 0 0 264.321 57.482 A 5.206 5.206 0 0 0 265.834 57.695 A 6.295 6.295 0 0 0 266.933 57.603 A 4.322 4.322 0 0 0 269.477 56.225 Q 270.352 55.249 270.646 53.767 Z M 236.439 52.138 Q 236.439 54.189 237.26 55.263 A 2.657 2.657 0 0 0 238.99 56.282 A 4.026 4.026 0 0 0 239.672 56.338 A 3.765 3.765 0 0 0 240.665 56.214 A 2.62 2.62 0 0 0 242.089 55.268 Q 242.914 54.199 242.914 52.138 Q 242.914 50.829 242.574 49.924 A 3.338 3.338 0 0 0 242.089 49.038 A 2.667 2.667 0 0 0 240.431 48.049 A 4.089 4.089 0 0 0 239.652 47.978 A 3.858 3.858 0 0 0 238.692 48.091 A 2.582 2.582 0 0 0 237.25 49.023 Q 236.666 49.775 236.503 51.059 A 8.566 8.566 0 0 0 236.439 52.138 Z M 262.641 52.138 Q 262.641 54.189 263.461 55.263 A 2.657 2.657 0 0 0 265.191 56.282 A 4.026 4.026 0 0 0 265.873 56.338 A 3.765 3.765 0 0 0 266.866 56.214 A 2.62 2.62 0 0 0 268.29 55.268 Q 269.115 54.199 269.115 52.138 Q 269.115 50.829 268.776 49.924 A 3.338 3.338 0 0 0 268.29 49.038 A 2.667 2.667 0 0 0 266.632 48.049 A 4.089 4.089 0 0 0 265.853 47.978 A 3.858 3.858 0 0 0 264.893 48.091 A 2.582 2.582 0 0 0 263.451 49.023 Q 262.868 49.775 262.704 51.059 A 8.566 8.566 0 0 0 262.641 52.138 Z M 227.846 47.978 A 4.555 4.555 0 0 0 226.963 48.058 Q 225.974 48.253 225.453 48.93 A 2.775 2.775 0 0 0 225.051 49.696 Q 224.78 50.455 224.731 51.61 A 12.49 12.49 0 0 0 224.721 52.138 A 10.719 10.719 0 0 0 224.774 53.246 Q 224.89 54.364 225.263 55.044 A 2.445 2.445 0 0 0 225.473 55.366 A 2.352 2.352 0 0 0 226.666 56.171 Q 227.197 56.338 227.885 56.338 Q 229.379 56.338 230.111 55.249 A 3.721 3.721 0 0 0 230.572 54.253 Q 230.716 53.78 230.784 53.207 A 9.289 9.289 0 0 0 230.844 52.119 A 9.578 9.578 0 0 0 230.786 51.028 Q 230.648 49.834 230.186 49.113 A 2.689 2.689 0 0 0 230.111 49.004 Q 229.379 47.978 227.846 47.978 Z"
       id="bottom_labelLayer"
       stroke="#777777"
       fill="#777777"
       style="stroke:#777777;fill:#777777"
       vector-effect="non-scaling-stroke" />
  </g>
  <circle
     style="fill:none;fill-opacity:1;stroke:url(#linearGradient1881);stroke-width:0.264583;stroke-miterlimit:4;stroke-dasharray:none"
     id="path848"
     cx="50.249565"
     cy="138.79933"
     r="3.6368725" />
  <rect
     style="fill:none;fill-opacity:1;stroke:url(#linearGradient1887);stroke-width:0.264583;stroke-miterlimit:4;stroke-dasharray:none"
     id="rect852"
     width="17.593929"
     height="8.7969646"
     x="40.354"
     y="189.91878" />
  <rect
     style="fill:none;fill-opacity:1;stroke:#ff0000;stroke-width:0.264583;stroke-miterlimit:4;stroke-dasharray:none"
     id="rect2588"
     width="6.1418748"
     height="35.713978"
     x="250.09554"
     y="133.52397"
     rx="23.170807"
     ry="0" />
</svg>
